<svg xmlns="http://www.w3.org/2000/svg" width="50" height="50"><path d="M-.002.008h50v50.001h-50V.008z" fill="#ef5b49"/><path d="M28.332 14.591h-7.917c-3.333 0-6.667 2.5-6.667 5.834 0 2.917 2.5 5.417 5.834 5.417h.833c-.417.417-.417.833-.417 1.25 0 .833.417 1.667 1.25 2.083h-1.25c-4.166 0-7.5 2.917-7.5 5.417 0 2.917 3.75 4.584 7.917 4.584 5 0 7.5-2.917 7.5-5.417 0-2.084-.833-3.75-2.917-5-.833-.417-2.083-1.667-2.083-2.5 0-.834.417-1.25 1.667-2.084 1.25-.833 2.083-2.5 2.083-4.167 0-2.083-.833-3.75-2.5-4.583h2.5l1.667-1.25zm-2.917 18.751v.833c0 2.084-1.667 4.167-5.833 4.167-2.917 0-5-2.083-5-4.167 0-2.083 2.5-4.166 5.833-4.166.833 0 1.25 0 2.083.416 1.667 1.25 2.917 1.667 2.917 2.917zm-5-8.334c-2.083 0-3.75-2.083-4.167-5-.416-2.5.834-4.583 2.917-4.583 2.083 0 3.75 2.083 4.167 4.583.416 2.5-.834 4.584-2.917 4.584zm16.25-5.833v-5H35v5h-5v1.25h5v5h1.666v-5h5v-1.667h-5z" fill-opacity=".1"/><path d="M26.665 12.925h-7.917c-3.333 0-6.666 2.5-6.666 5.833 0 2.917 2.5 5.417 5.833 5.417h.833c-.416.417-.416.833-.416 1.25 0 .834.416 1.667 1.25 2.084h-1.25c-4.167 0-7.5 2.916-7.5 5.416 0 2.917 3.75 4.584 7.916 4.584 5 0 7.5-2.917 7.5-5.417 0-2.083-.833-3.75-2.916-5-.834-.417-2.084-1.667-2.084-2.5 0-.834.417-1.25 1.667-2.084 1.25-.833 2.083-2.5 2.083-4.166 0-2.084-.833-3.75-2.5-4.584h2.5l1.667-1.25zm-2.917 18.75v.834c0 2.083-1.666 4.167-5.833 4.167-2.917 0-5-2.084-5-4.167 0-2.084 2.5-4.167 5.833-4.167.834 0 1.25 0 2.084.417 1.666 1.25 2.916 1.666 2.916 2.916zm-5-8.333c-2.083 0-3.75-2.084-4.166-5-.417-2.5.833-4.584 2.916-4.584 2.084 0 3.75 2.084 4.167 4.584.417 2.5-.833 4.583-2.917 4.583zm16.25-5.834v-5h-1.666v5h-5v1.25h5v5h1.667v-5h5v-1.666h-5z" fill="#fff"/></svg>