<svg xmlns="http://www.w3.org/2000/svg" width="50" height="50"><path d="M-.001.008h50v50.001H0V.008z" fill="#2e5e86"/><path d="M25.832 21.675c2.917-.417 5.417 1.667 5.834 4.167.416 2.917-1.667 5.417-4.167 5.833-2.917.417-5.417-1.666-5.833-4.166-.417-2.5 1.25-5.417 4.166-5.834zM18.75 35.842c-1.25 0-1.25-1.25-1.25-2.083v-9.584h2.083c0 .833-.416 1.25-.416 2.084 0 4.166 3.333 7.5 7.5 7.5a7.47 7.47 0 0 0 7.5-7.5c0-1.25 0-1.25-.417-2.5h2.083v10.416c0 .834-.416 1.25-1.25 1.25H18.75zm13.75-18.75h2.083c1.667 0 1.667 1.666 1.667 2.916 0 1.667-1.25 1.667-2.917 1.667-.833 0-1.25-.417-1.25-.833v-2.084c0-.833 0-1.25.834-1.666zm-15.417-2.917c-2.083.416-2.5 1.667-2.5 3.75v18.334c.417 1.667 1.667 2.5 3.334 2.5h15c2.083 0 3.75.417 5-1.25.416-.833.416-1.25.416-2.5V16.675c-.416-1.667-1.666-2.5-3.333-2.5H17.082" fill="#245175"/><path d="M24.166 20.008c2.916-.416 5.416 1.667 5.833 4.167.417 2.917-1.667 5.417-4.167 5.834-2.916.416-5.416-1.667-5.833-4.167-.417-2.5 1.25-5.417 4.167-5.834zm-7.084 14.167c-1.25 0-1.25-1.25-1.25-2.083v-9.584h2.084c0 .834-.417 1.25-.417 2.084 0 4.167 3.333 7.5 7.5 7.5s7.5-3.333 7.5-7.5c0-1.25 0-1.25-.417-2.5h2.084v10.417c0 .833-.417 1.25-1.25 1.25H17.082zm13.75-18.75h2.084c1.666 0 1.666 1.667 1.666 2.917 0 1.666-1.25 1.666-2.916 1.666-.834 0-1.25-.416-1.25-.833v-2.083c0-.834 0-1.25.833-1.667zm-15.417-2.917c-2.083.417-2.5 1.667-2.5 3.75v18.334c.417 1.667 1.667 2.5 3.334 2.5h15c2.083 0 3.75.417 5-1.25.417-.833.417-1.25.417-2.5V15.008c-.417-1.667-1.667-2.5-3.334-2.5H15.415" fill="#fff"/></svg>