<svg xmlns="http://www.w3.org/2000/svg" width="50" height="50"><path d="M0 .008h50V50.01H0V.008z" fill="#3aaae1"/><path d="M42.084 17.092c-1.25.417-2.5.834-3.75.834 1.25-.834 2.5-2.084 2.917-3.334-1.25.834-2.5 1.25-4.167 1.667-1.25-1.25-2.917-2.084-4.584-2.084-3.333 0-6.25 2.917-6.25 6.25v1.25c-5.417-.416-10-2.916-12.917-6.666-.417.833-.833 2.083-.833 3.333 0 2.084 1.25 4.167 2.916 5.417-.833 0-2.083-.417-2.916-.833 0 2.917 2.083 5.417 5 6.25-.417 0-1.25.417-1.667.417h-1.25c.833 2.5 3.333 4.166 5.834 4.583-2.084 1.667-5 2.5-7.917 2.5h-1.667c2.917 1.667 6.25 2.917 9.584 2.917 11.667 0 17.917-9.584 17.917-17.917v-.834c1.25-.833 2.5-2.083 3.333-3.333z" fill-opacity=".1"/><path d="M40.417 15.426c-1.25.416-2.5.833-3.75.833 1.25-.833 2.5-2.084 2.917-3.334-1.25.834-2.5 1.25-4.167 1.667-1.25-1.25-2.917-2.083-4.583-2.083-3.334 0-6.25 2.917-6.25 6.25v1.25c-5.418-.417-10.001-2.917-12.918-6.667-.416.833-.833 2.084-.833 3.334 0 2.083 1.25 4.166 2.917 5.416-.834 0-2.084-.416-2.917-.833 0 2.917 2.083 5.417 5 6.25-.417 0-1.25.417-1.667.417h-1.25c.834 2.5 3.334 4.167 5.834 4.583-2.084 1.667-5 2.5-7.917 2.5H9.166c2.917 1.667 6.25 2.917 9.584 2.917 11.667 0 17.917-9.583 17.917-17.917v-.833c1.25-.834 2.5-2.084 3.334-3.334z" fill="#fefefe"/></svg>