<svg xmlns="http://www.w3.org/2000/svg" preserveAspectRatio="xMidYMid" width="25" height="24" viewBox="0 0 25 24"><defs><style>.cls-2{fill:#fff}</style></defs><path d="M9.338 18.677a9.172 9.172 0 0 0 5.965-2.174l7.249 7.248a.828.828 0 0 0 .6.248.85.85 0 0 0 .601-1.449l-7.249-7.248a9.322 9.322 0 0 0 2.175-5.963C18.679 4.182 14.495 0 9.338 0 4.202 0-.003 4.203-.003 9.339c0 5.156 4.205 9.338 9.341 9.338zm0-16.979c4.225 0 7.643 3.437 7.643 7.641a7.637 7.637 0 0 1-7.643 7.641c-4.225 0-7.642-3.438-7.642-7.641 0-4.204 3.438-7.641 7.642-7.641z" id="path-1" class="cls-2" fill-rule="evenodd"/></svg>