<svg xmlns="http://www.w3.org/2000/svg" width="27" height="22"><style>.s0{fill:#fefefe}.s1{fill:#00247d}.s2{fill:#cf142b}</style><path d="M-.183.011H26.81v21.994H-.183V.01z" fill="#fefefe"/><g clip-path="url(#clipPath5004-7-3-5-1-4-1-3-7-0-9-3-9-6)" transform="matrix(4.15263 0 0 -4.22947 -548.33 4614.36)"><path d="M130.8 1091.9h8.9v-6.9h-8.9v6.9z" fill="#fefefe"/><path d="M136 1085.2h2.9l-.2 1.1-2.7 1.3v-2.4zm2.6 5.3l.3 1.1H136v-2.3l2.6 1.2zm-4.1 1.1h-2.8l.2-1.1 2.6-1.2v2.4zm-2.7-5.3l-.2-1.1h2.9v2.4s-2.1-1-2.4-1.1c-.1 0-.3-.1-.3-.2" fill="#00247d"/><path d="M130.8 1088.9v-.9h4v-2.8h.9v2.8h4v.9h-4v2.8h-.9v-2.8h-4z" fill="#cf142b"/><path d="M130.8 1089.1h2s-1.8.9-2 .9v-.9z" fill="#00247d"/><path d="M130.9 1086.3h.7s.7.3.7.4l1.8.9c.1 0 .3.2.4.2h-.6l-.4-.2c-.3-.1-2.5-1.2-2.5-1.2" fill="#cf142b"/><path d="M130.8 1086.8l2 .9h-2v-.9z" fill="#00247d"/><path d="M139.7 1090.5h-.7l-2.8-1.4h.6c.1 0 .2.1.2.1l1 .5c.3.1.5.3.8.4l.6.3.2.1" fill="#cf142b"/><path d="M139.8 1086.8v.9h-1.9l1.9-.9zm0 2.3v.9l-1.9-.9h1.9m0 0v.9l-1.9-.9h1.9z" fill="#00247d"/><path d="M130.8 1090.2c.1 0 .5-.3.7-.3.2-.1.5-.2.7-.3l.9-.4h.7s-1.8.9-2.1 1l-.5.3s-.1.1-.2.1h-.1v-.3zm9-3.9v.3l-2.2 1m2.2-1.3v.3l-2.2 1h-.7l2.9-1.4z" fill="#cf142b"/></g></svg>